<svg xmlns="http://www.w3.org/2000/svg"
    xmlns:xlink="http://www.w3.org/1999/xlink" width="300" zoomAndPan="magnify" viewBox="0 0 224.87999 149.999998" height="200" preserveAspectRatio="xMidYMid meet" version="1.0">
    <defs>
        <g/>
        <clipPath id="8b00d4ac80">
            <path d="M 0 0.0390625 L 224.761719 0.0390625 L 224.761719 149.960938 L 0 149.960938 Z M 0 0.0390625 " clip-rule="nonzero"/>
        </clipPath>
    </defs>
    <g fill="#fdfffc" fill-opacity="1">
        <g transform="translate(14.991999, 126.712686)">
            <g>
                <path d="M 118.128906 -85.125 L 118.128906 -104.390625 L 73.175781 -104.390625 L 73.175781 -85.125 L 83.332031 -85.125 L 83.332031 -49.582031 L 46.742188 -104.390625 L 3.882812 -104.390625 L 3.882812 -85.125 L 12.542969 -85.125 L 12.542969 -19.265625 L 3.734375 -19.265625 L 3.734375 0 L 49.582031 0 L 49.582031 -19.265625 L 38.082031 -19.265625 L 38.082031 -56.898438 L 76.164062 0 L 108.273438 0 L 108.273438 -85.125 Z M 118.128906 -85.125 "/>
            </g>
        </g>
    </g>
    <g fill="#fdfffc" fill-opacity="1">
        <g transform="translate(90.220949, 126.712686)">
            <g>
                <path d="M 120.667969 0 L 120.667969 -19.5625 L 110.214844 -19.5625 L 83.78125 -104.390625 L 26.433594 -104.390625 L 26.433594 -85.125 L 32.554688 -85.125 L 12.394531 -19.5625 L 2.238281 -19.5625 L 2.238281 0 L 49.730469 0 L 49.730469 -19.5625 L 38.082031 -19.5625 L 41.21875 -29.71875 L 71.832031 -29.71875 L 74.96875 -19.5625 L 60.78125 -19.5625 L 60.78125 0 Z M 46.742188 -47.640625 L 56.449219 -79.898438 L 66.308594 -47.640625 Z M 46.742188 -47.640625 "/>
            </g>
        </g>
    </g>
</svg>