<svg xmlns="http://www.w3.org/2000/svg"
    xmlns:xlink="http://www.w3.org/1999/xlink" width="300" zoomAndPan="magnify" viewBox="0 0 224.87999 149.999998" height="200" preserveAspectRatio="xMidYMid meet" version="1.0">
    <defs>
        <g/>
        <clipPath id="146fb0b4d4">
            <path d="M 0 0.0390625 L 224.761719 0.0390625 L 224.761719 149.960938 L 0 149.960938 Z M 0 0.0390625 " clip-rule="nonzero"/>
        </clipPath>
    </defs>
    <g fill="#000000" fill-opacity="1">
        <g transform="translate(-0.000000000000001738, 106.05217)">
            <g>
                <path d="M 98.863281 -71.242188 L 98.863281 -87.363281 L 61.242188 -87.363281 L 61.242188 -71.242188 L 69.742188 -71.242188 L 69.742188 -41.496094 L 39.121094 -87.363281 L 3.25 -87.363281 L 3.25 -71.242188 L 10.5 -71.242188 L 10.5 -16.121094 L 3.125 -16.121094 L 3.125 0 L 41.496094 0 L 41.496094 -16.121094 L 31.871094 -16.121094 L 31.871094 -47.617188 L 63.742188 0 L 90.613281 0 L 90.613281 -71.242188 Z M 98.863281 -71.242188 "/>
            </g>
        </g>
    </g>
    <g fill="#000000" fill-opacity="1">
        <g transform="translate(62.958987, 106.05217)">
            <g>
                <path d="M 100.988281 0 L 100.988281 -16.371094 L 92.238281 -16.371094 L 70.117188 -87.363281 L 22.121094 -87.363281 L 22.121094 -71.242188 L 27.246094 -71.242188 L 10.375 -16.371094 L 1.875 -16.371094 L 1.875 0 L 41.621094 0 L 41.621094 -16.371094 L 31.871094 -16.371094 L 34.496094 -24.871094 L 60.117188 -24.871094 L 62.742188 -16.371094 L 50.867188 -16.371094 L 50.867188 0 Z M 39.121094 -39.871094 L 47.242188 -66.867188 L 55.492188 -39.871094 Z M 39.121094 -39.871094 "/>
            </g>
        </g>
    </g>
    <g fill="#000000" fill-opacity="1">
        <g transform="translate(7.887679, 141.014439)">
            <g>
                <path d="M 21.734375 -17.484375 L 21.734375 -13.078125 C 21.035156 -13.078125 20.578125 -12.960938 20.359375 -12.734375 C 20.140625 -12.503906 20.03125 -12.171875 20.03125 -11.734375 L 20.03125 0 L 12.90625 0 L 6.703125 -9.703125 L 6.703125 -5.59375 C 6.703125 -5.070312 6.851562 -4.742188 7.15625 -4.609375 C 7.457031 -4.472656 7.957031 -4.40625 8.65625 -4.40625 L 8.65625 0 L 0.484375 0 L 0.484375 -4.40625 C 1.179688 -4.40625 1.679688 -4.5 1.984375 -4.6875 C 2.285156 -4.875 2.4375 -5.222656 2.4375 -5.734375 L 2.4375 -11.734375 C 2.4375 -12.265625 2.285156 -12.617188 1.984375 -12.796875 C 1.679688 -12.984375 1.179688 -13.078125 0.484375 -13.078125 L 0.484375 -17.484375 L 9.8125 -17.484375 L 15.75 -8.1875 L 15.75 -11.734375 C 15.75 -12.265625 15.640625 -12.617188 15.421875 -12.796875 C 15.203125 -12.984375 14.75 -13.078125 14.0625 -13.078125 L 14.0625 -17.484375 Z M 21.734375 -17.484375 "/>
            </g>
        </g>
    </g>
    <g fill="#000000" fill-opacity="1">
        <g transform="translate(29.853863, 141.014439)">
            <g>
                <path d="M 0.484375 -6.5625 C 0.484375 -7.726562 0.6875 -8.75 1.09375 -9.625 C 1.5 -10.507812 2.070312 -11.242188 2.8125 -11.828125 C 3.5625 -12.421875 4.460938 -12.863281 5.515625 -13.15625 C 6.566406 -13.457031 7.742188 -13.609375 9.046875 -13.609375 C 10.347656 -13.609375 11.523438 -13.457031 12.578125 -13.15625 C 13.628906 -12.863281 14.523438 -12.421875 15.265625 -11.828125 C 16.003906 -11.242188 16.578125 -10.507812 16.984375 -9.625 C 17.398438 -8.75 17.609375 -7.726562 17.609375 -6.5625 C 17.609375 -5.414062 17.398438 -4.398438 16.984375 -3.515625 C 16.578125 -2.628906 16.003906 -1.882812 15.265625 -1.28125 C 14.523438 -0.6875 13.628906 -0.238281 12.578125 0.0625 C 11.523438 0.363281 10.347656 0.515625 9.046875 0.515625 C 7.742188 0.515625 6.566406 0.363281 5.515625 0.0625 C 4.460938 -0.238281 3.5625 -0.6875 2.8125 -1.28125 C 2.070312 -1.882812 1.5 -2.628906 1.09375 -3.515625 C 0.6875 -4.398438 0.484375 -5.414062 0.484375 -6.5625 Z M 7.234375 -6.5625 C 7.234375 -5.894531 7.265625 -5.328125 7.328125 -4.859375 C 7.390625 -4.398438 7.488281 -4.03125 7.625 -3.75 C 7.757812 -3.46875 7.941406 -3.257812 8.171875 -3.125 C 8.398438 -3 8.691406 -2.9375 9.046875 -2.9375 C 9.398438 -2.9375 9.6875 -3 9.90625 -3.125 C 10.132812 -3.257812 10.316406 -3.46875 10.453125 -3.75 C 10.597656 -4.03125 10.695312 -4.398438 10.75 -4.859375 C 10.8125 -5.328125 10.84375 -5.894531 10.84375 -6.5625 C 10.84375 -7.894531 10.71875 -8.828125 10.46875 -9.359375 C 10.21875 -9.890625 9.742188 -10.15625 9.046875 -10.15625 C 8.691406 -10.15625 8.398438 -10.09375 8.171875 -9.96875 C 7.941406 -9.851562 7.757812 -9.65625 7.625 -9.375 C 7.488281 -9.09375 7.390625 -8.71875 7.328125 -8.25 C 7.265625 -7.789062 7.234375 -7.226562 7.234375 -6.5625 Z M 7.234375 -6.5625 "/>
            </g>
        </g>
    </g>
    <g fill="#000000" fill-opacity="1">
        <g transform="translate(47.939474, 141.014439)">
            <g>
                <path d="M 6.828125 -11.4375 C 6.421875 -11.4375 6.070312 -11.40625 5.78125 -11.34375 C 5.5 -11.28125 5.253906 -11.207031 5.046875 -11.125 C 4.835938 -11.050781 4.664062 -10.960938 4.53125 -10.859375 C 4.394531 -10.765625 4.273438 -10.675781 4.171875 -10.59375 L 4.296875 -10.484375 C 4.441406 -10.554688 4.601562 -10.632812 4.78125 -10.71875 C 4.96875 -10.800781 5.195312 -10.84375 5.46875 -10.84375 C 5.9375 -10.84375 6.335938 -10.6875 6.671875 -10.375 C 7.015625 -10.070312 7.1875 -9.585938 7.1875 -8.921875 C 7.1875 -8.296875 6.925781 -7.789062 6.40625 -7.40625 C 5.894531 -7.019531 5.203125 -6.828125 4.328125 -6.828125 C 3.503906 -6.828125 2.84375 -7.066406 2.34375 -7.546875 C 1.851562 -8.023438 1.609375 -8.703125 1.609375 -9.578125 C 1.609375 -10.054688 1.738281 -10.535156 2 -11.015625 C 2.269531 -11.492188 2.6875 -11.921875 3.25 -12.296875 C 3.820312 -12.679688 4.546875 -12.992188 5.421875 -13.234375 C 6.296875 -13.484375 7.347656 -13.609375 8.578125 -13.609375 C 10.054688 -13.609375 11.257812 -13.46875 12.1875 -13.1875 C 13.125 -12.914062 13.847656 -12.5625 14.359375 -12.125 C 14.878906 -11.695312 15.238281 -11.203125 15.4375 -10.640625 C 15.632812 -10.085938 15.734375 -9.53125 15.734375 -8.96875 L 15.734375 -4.328125 C 15.734375 -3.609375 15.753906 -3.117188 15.796875 -2.859375 C 15.847656 -2.609375 16.023438 -2.484375 16.328125 -2.484375 C 16.578125 -2.484375 16.75 -2.597656 16.84375 -2.828125 C 16.945312 -3.066406 17 -3.46875 17 -4.03125 L 17 -5.515625 L 18.359375 -5.515625 L 18.359375 -4.015625 C 18.359375 -3.296875 18.296875 -2.660156 18.171875 -2.109375 C 18.054688 -1.566406 17.832031 -1.097656 17.5 -0.703125 C 17.164062 -0.316406 16.710938 -0.0234375 16.140625 0.171875 C 15.578125 0.378906 14.847656 0.484375 13.953125 0.484375 C 13.160156 0.484375 12.5 0.394531 11.96875 0.21875 C 11.445312 0.0507812 11.03125 -0.15625 10.71875 -0.40625 C 10.40625 -0.65625 10.179688 -0.914062 10.046875 -1.1875 C 9.921875 -1.46875 9.859375 -1.710938 9.859375 -1.921875 L 9.671875 -1.921875 C 9.628906 -1.597656 9.492188 -1.289062 9.265625 -1 C 9.035156 -0.707031 8.722656 -0.445312 8.328125 -0.21875 C 7.929688 0.0078125 7.453125 0.191406 6.890625 0.328125 C 6.328125 0.460938 5.691406 0.53125 4.984375 0.53125 C 4.304688 0.53125 3.6875 0.460938 3.125 0.328125 C 2.570312 0.203125 2.097656 0 1.703125 -0.28125 C 1.304688 -0.5625 1 -0.925781 0.78125 -1.375 C 0.570312 -1.820312 0.46875 -2.351562 0.46875 -2.96875 C 0.46875 -3.726562 0.679688 -4.328125 1.109375 -4.765625 C 1.535156 -5.203125 2.070312 -5.550781 2.71875 -5.8125 C 3.363281 -6.070312 4.066406 -6.28125 4.828125 -6.4375 C 5.597656 -6.601562 6.304688 -6.800781 6.953125 -7.03125 C 7.609375 -7.257812 8.148438 -7.554688 8.578125 -7.921875 C 9.003906 -8.285156 9.21875 -8.800781 9.21875 -9.46875 C 9.21875 -10.0625 9.03125 -10.535156 8.65625 -10.890625 C 8.28125 -11.253906 7.671875 -11.4375 6.828125 -11.4375 Z M 9.21875 -6.296875 C 9.039062 -6.035156 8.820312 -5.828125 8.5625 -5.671875 C 8.300781 -5.523438 8.046875 -5.378906 7.796875 -5.234375 C 7.554688 -5.085938 7.347656 -4.910156 7.171875 -4.703125 C 6.992188 -4.503906 6.90625 -4.234375 6.90625 -3.890625 C 6.90625 -3.628906 6.976562 -3.394531 7.125 -3.1875 C 7.269531 -2.976562 7.546875 -2.875 7.953125 -2.875 C 8.328125 -2.875 8.628906 -3.015625 8.859375 -3.296875 C 9.097656 -3.585938 9.21875 -3.992188 9.21875 -4.515625 Z M 9.21875 -6.296875 "/>
            </g>
        </g>
    </g>
    <g fill="#000000" fill-opacity="1">
        <g transform="translate(66.096287, 141.014439)">
            <g/>
        </g>
    </g>
    <g fill="#000000" fill-opacity="1">
        <g transform="translate(73.382747, 141.014439)">
            <g>
                <path d="M 9.953125 -6.109375 L 6.203125 -6.109375 L 6.03125 -5.59375 C 5.90625 -5.25 5.910156 -4.960938 6.046875 -4.734375 C 6.191406 -4.515625 6.492188 -4.40625 6.953125 -4.40625 L 7.640625 -4.40625 L 7.640625 0 L 0.234375 0 L 0.234375 -4.40625 L 0.71875 -4.40625 C 1.289062 -4.40625 1.671875 -4.515625 1.859375 -4.734375 C 2.054688 -4.960938 2.25 -5.296875 2.4375 -5.734375 L 4.875 -11.734375 C 5.039062 -12.191406 5.066406 -12.53125 4.953125 -12.75 C 4.835938 -12.96875 4.492188 -13.078125 3.921875 -13.078125 L 3.671875 -13.078125 L 3.671875 -17.484375 L 15.875 -17.484375 L 15.875 -13.078125 L 15.640625 -13.078125 C 15.046875 -13.078125 14.691406 -12.960938 14.578125 -12.734375 C 14.460938 -12.503906 14.5 -12.171875 14.6875 -11.734375 L 17.125 -5.734375 C 17.21875 -5.515625 17.300781 -5.320312 17.375 -5.15625 C 17.445312 -5 17.535156 -4.863281 17.640625 -4.75 C 17.753906 -4.632812 17.90625 -4.546875 18.09375 -4.484375 C 18.28125 -4.429688 18.519531 -4.40625 18.8125 -4.40625 L 19.296875 -4.40625 L 19.296875 0 L 8.515625 0 L 8.515625 -4.40625 L 9.171875 -4.40625 C 9.617188 -4.40625 9.914062 -4.515625 10.0625 -4.734375 C 10.21875 -4.960938 10.234375 -5.25 10.109375 -5.59375 Z M 6.796875 -7.953125 L 9.328125 -7.953125 L 8.140625 -11.59375 L 8.046875 -11.59375 Z M 6.796875 -7.953125 "/>
            </g>
        </g>
    </g>
    <g fill="#000000" fill-opacity="1">
        <g transform="translate(92.928023, 141.014439)">
            <g>
                <path d="M 18.1875 -5.5625 C 18.1875 -5.144531 18.257812 -4.847656 18.40625 -4.671875 C 18.550781 -4.492188 18.832031 -4.40625 19.25 -4.40625 L 19.640625 -4.40625 L 19.640625 0 L 11.671875 0 L 11.671875 -7.578125 C 11.671875 -7.890625 11.640625 -8.140625 11.578125 -8.328125 C 11.515625 -8.515625 11.425781 -8.65625 11.3125 -8.75 C 11.207031 -8.851562 11.085938 -8.921875 10.953125 -8.953125 C 10.816406 -8.984375 10.679688 -9 10.546875 -9 C 10.023438 -9 9.664062 -8.847656 9.46875 -8.546875 C 9.28125 -8.242188 9.1875 -7.816406 9.1875 -7.265625 L 9.1875 -5.5625 C 9.1875 -5.144531 9.257812 -4.847656 9.40625 -4.671875 C 9.550781 -4.492188 9.832031 -4.40625 10.25 -4.40625 L 10.65625 -4.40625 L 10.65625 0 L 0.96875 0 L 0.96875 -4.40625 L 1.671875 -4.40625 C 1.992188 -4.40625 2.238281 -4.507812 2.40625 -4.71875 C 2.582031 -4.925781 2.671875 -5.175781 2.671875 -5.46875 L 2.671875 -7.734375 C 2.671875 -8.097656 2.5625 -8.34375 2.34375 -8.46875 C 2.125 -8.601562 1.878906 -8.671875 1.609375 -8.671875 L 0.96875 -8.671875 L 0.96875 -13.078125 L 8.03125 -13.078125 L 7.78125 -9.8125 L 7.984375 -9.8125 C 8.148438 -11.03125 8.640625 -11.96875 9.453125 -12.625 C 10.265625 -13.28125 11.441406 -13.609375 12.984375 -13.609375 C 13.566406 -13.609375 14.109375 -13.53125 14.609375 -13.375 C 15.109375 -13.226562 15.550781 -12.992188 15.9375 -12.671875 C 16.332031 -12.359375 16.644531 -11.960938 16.875 -11.484375 C 17.101562 -11.003906 17.234375 -10.445312 17.265625 -9.8125 L 17.421875 -9.8125 C 17.492188 -10.414062 17.671875 -10.957031 17.953125 -11.4375 C 18.234375 -11.914062 18.585938 -12.3125 19.015625 -12.625 C 19.453125 -12.945312 19.925781 -13.191406 20.4375 -13.359375 C 20.957031 -13.523438 21.503906 -13.609375 22.078125 -13.609375 C 23.128906 -13.609375 23.988281 -13.453125 24.65625 -13.140625 C 25.320312 -12.835938 25.835938 -12.453125 26.203125 -11.984375 C 26.578125 -11.515625 26.832031 -11.003906 26.96875 -10.453125 C 27.113281 -9.898438 27.1875 -9.382812 27.1875 -8.90625 L 27.1875 -5.5625 C 27.1875 -5.144531 27.257812 -4.847656 27.40625 -4.671875 C 27.550781 -4.492188 27.832031 -4.40625 28.25 -4.40625 L 28.890625 -4.40625 L 28.890625 0 L 20.671875 0 L 20.671875 -7.578125 C 20.671875 -7.890625 20.632812 -8.140625 20.5625 -8.328125 C 20.5 -8.515625 20.414062 -8.65625 20.3125 -8.75 C 20.207031 -8.851562 20.082031 -8.921875 19.9375 -8.953125 C 19.800781 -8.984375 19.671875 -9 19.546875 -9 C 19.023438 -9 18.664062 -8.847656 18.46875 -8.546875 C 18.28125 -8.242188 18.1875 -7.816406 18.1875 -7.265625 Z M 18.1875 -5.5625 "/>
            </g>
        </g>
    </g>
    <g fill="#000000" fill-opacity="1">
        <g transform="translate(122.050128, 141.014439)">
            <g>
                <path d="M 18.1875 -5.5625 C 18.1875 -5.144531 18.257812 -4.847656 18.40625 -4.671875 C 18.550781 -4.492188 18.832031 -4.40625 19.25 -4.40625 L 19.640625 -4.40625 L 19.640625 0 L 11.671875 0 L 11.671875 -7.578125 C 11.671875 -7.890625 11.640625 -8.140625 11.578125 -8.328125 C 11.515625 -8.515625 11.425781 -8.65625 11.3125 -8.75 C 11.207031 -8.851562 11.085938 -8.921875 10.953125 -8.953125 C 10.816406 -8.984375 10.679688 -9 10.546875 -9 C 10.023438 -9 9.664062 -8.847656 9.46875 -8.546875 C 9.28125 -8.242188 9.1875 -7.816406 9.1875 -7.265625 L 9.1875 -5.5625 C 9.1875 -5.144531 9.257812 -4.847656 9.40625 -4.671875 C 9.550781 -4.492188 9.832031 -4.40625 10.25 -4.40625 L 10.65625 -4.40625 L 10.65625 0 L 0.96875 0 L 0.96875 -4.40625 L 1.671875 -4.40625 C 1.992188 -4.40625 2.238281 -4.507812 2.40625 -4.71875 C 2.582031 -4.925781 2.671875 -5.175781 2.671875 -5.46875 L 2.671875 -7.734375 C 2.671875 -8.097656 2.5625 -8.34375 2.34375 -8.46875 C 2.125 -8.601562 1.878906 -8.671875 1.609375 -8.671875 L 0.96875 -8.671875 L 0.96875 -13.078125 L 8.03125 -13.078125 L 7.78125 -9.8125 L 7.984375 -9.8125 C 8.148438 -11.03125 8.640625 -11.96875 9.453125 -12.625 C 10.265625 -13.28125 11.441406 -13.609375 12.984375 -13.609375 C 13.566406 -13.609375 14.109375 -13.53125 14.609375 -13.375 C 15.109375 -13.226562 15.550781 -12.992188 15.9375 -12.671875 C 16.332031 -12.359375 16.644531 -11.960938 16.875 -11.484375 C 17.101562 -11.003906 17.234375 -10.445312 17.265625 -9.8125 L 17.421875 -9.8125 C 17.492188 -10.414062 17.671875 -10.957031 17.953125 -11.4375 C 18.234375 -11.914062 18.585938 -12.3125 19.015625 -12.625 C 19.453125 -12.945312 19.925781 -13.191406 20.4375 -13.359375 C 20.957031 -13.523438 21.503906 -13.609375 22.078125 -13.609375 C 23.128906 -13.609375 23.988281 -13.453125 24.65625 -13.140625 C 25.320312 -12.835938 25.835938 -12.453125 26.203125 -11.984375 C 26.578125 -11.515625 26.832031 -11.003906 26.96875 -10.453125 C 27.113281 -9.898438 27.1875 -9.382812 27.1875 -8.90625 L 27.1875 -5.5625 C 27.1875 -5.144531 27.257812 -4.847656 27.40625 -4.671875 C 27.550781 -4.492188 27.832031 -4.40625 28.25 -4.40625 L 28.890625 -4.40625 L 28.890625 0 L 20.671875 0 L 20.671875 -7.578125 C 20.671875 -7.890625 20.632812 -8.140625 20.5625 -8.328125 C 20.5 -8.515625 20.414062 -8.65625 20.3125 -8.75 C 20.207031 -8.851562 20.082031 -8.921875 19.9375 -8.953125 C 19.800781 -8.984375 19.671875 -9 19.546875 -9 C 19.023438 -9 18.664062 -8.847656 18.46875 -8.546875 C 18.28125 -8.242188 18.1875 -7.816406 18.1875 -7.265625 Z M 18.1875 -5.5625 "/>
            </g>
        </g>
    </g>
    <g fill="#000000" fill-opacity="1">
        <g transform="translate(151.172232, 141.014439)">
            <g>
                <path d="M 9.265625 -13.078125 L 9.265625 -5.6875 C 9.265625 -5.15625 9.394531 -4.804688 9.65625 -4.640625 C 9.914062 -4.484375 10.25 -4.40625 10.65625 -4.40625 L 10.96875 -4.40625 L 10.96875 0 L 0.96875 0 L 0.96875 -4.40625 L 1.4375 -4.40625 C 1.851562 -4.40625 2.160156 -4.535156 2.359375 -4.796875 C 2.566406 -5.066406 2.671875 -5.351562 2.671875 -5.65625 L 2.671875 -7.34375 C 2.671875 -7.800781 2.523438 -8.132812 2.234375 -8.34375 C 1.941406 -8.5625 1.609375 -8.671875 1.234375 -8.671875 L 0.96875 -8.671875 L 0.96875 -13.078125 Z M 2.484375 -16 C 2.484375 -16.6875 2.738281 -17.269531 3.25 -17.75 C 3.769531 -18.226562 4.507812 -18.46875 5.46875 -18.46875 C 6.445312 -18.46875 7.195312 -18.226562 7.71875 -17.75 C 8.25 -17.269531 8.515625 -16.6875 8.515625 -16 C 8.515625 -15.300781 8.25 -14.710938 7.71875 -14.234375 C 7.195312 -13.753906 6.445312 -13.515625 5.46875 -13.515625 C 4.507812 -13.515625 3.769531 -13.753906 3.25 -14.234375 C 2.738281 -14.710938 2.484375 -15.300781 2.484375 -16 Z M 2.484375 -16 "/>
            </g>
        </g>
    </g>
    <g fill="#000000" fill-opacity="1">
        <g transform="translate(162.374868, 141.014439)">
            <g>
                <path d="M 8.03125 -13.078125 L 7.828125 -9.8125 L 8.03125 -9.8125 C 8.300781 -11.0625 8.757812 -12.003906 9.40625 -12.640625 C 10.050781 -13.285156 10.890625 -13.609375 11.921875 -13.609375 C 12.523438 -13.609375 13.046875 -13.507812 13.484375 -13.3125 C 13.929688 -13.125 14.285156 -12.867188 14.546875 -12.546875 C 14.816406 -12.222656 15.007812 -11.847656 15.125 -11.421875 C 15.25 -11.003906 15.3125 -10.566406 15.3125 -10.109375 C 15.3125 -9.742188 15.253906 -9.378906 15.140625 -9.015625 C 15.035156 -8.648438 14.859375 -8.316406 14.609375 -8.015625 C 14.367188 -7.722656 14.050781 -7.488281 13.65625 -7.3125 C 13.269531 -7.132812 12.796875 -7.046875 12.234375 -7.046875 C 11.441406 -7.046875 10.816406 -7.25 10.359375 -7.65625 C 9.898438 -8.0625 9.671875 -8.550781 9.671875 -9.125 C 9.671875 -9.394531 9.703125 -9.625 9.765625 -9.8125 C 9.828125 -10.007812 9.890625 -10.171875 9.953125 -10.296875 C 10.023438 -10.421875 10.070312 -10.507812 10.09375 -10.5625 C 10.125 -10.625 10.097656 -10.65625 10.015625 -10.65625 C 9.847656 -10.65625 9.664062 -10.460938 9.46875 -10.078125 C 9.28125 -9.703125 9.1875 -9.101562 9.1875 -8.28125 L 9.1875 -5.5625 C 9.1875 -5.144531 9.257812 -4.847656 9.40625 -4.671875 C 9.550781 -4.492188 9.832031 -4.40625 10.25 -4.40625 L 10.96875 -4.40625 L 10.96875 0 L 0.96875 0 L 0.96875 -4.40625 L 1.671875 -4.40625 C 1.992188 -4.40625 2.238281 -4.507812 2.40625 -4.71875 C 2.582031 -4.925781 2.671875 -5.175781 2.671875 -5.46875 L 2.671875 -7.734375 C 2.671875 -8.097656 2.5625 -8.34375 2.34375 -8.46875 C 2.125 -8.601562 1.878906 -8.671875 1.609375 -8.671875 L 0.96875 -8.671875 L 0.96875 -13.078125 Z M 8.03125 -13.078125 "/>
            </g>
        </g>
    </g>
    <g fill="#000000" fill-opacity="1">
        <g transform="translate(177.932756, 141.014439)">
            <g>
                <path d="M 6.828125 -11.4375 C 6.421875 -11.4375 6.070312 -11.40625 5.78125 -11.34375 C 5.5 -11.28125 5.253906 -11.207031 5.046875 -11.125 C 4.835938 -11.050781 4.664062 -10.960938 4.53125 -10.859375 C 4.394531 -10.765625 4.273438 -10.675781 4.171875 -10.59375 L 4.296875 -10.484375 C 4.441406 -10.554688 4.601562 -10.632812 4.78125 -10.71875 C 4.96875 -10.800781 5.195312 -10.84375 5.46875 -10.84375 C 5.9375 -10.84375 6.335938 -10.6875 6.671875 -10.375 C 7.015625 -10.070312 7.1875 -9.585938 7.1875 -8.921875 C 7.1875 -8.296875 6.925781 -7.789062 6.40625 -7.40625 C 5.894531 -7.019531 5.203125 -6.828125 4.328125 -6.828125 C 3.503906 -6.828125 2.84375 -7.066406 2.34375 -7.546875 C 1.851562 -8.023438 1.609375 -8.703125 1.609375 -9.578125 C 1.609375 -10.054688 1.738281 -10.535156 2 -11.015625 C 2.269531 -11.492188 2.6875 -11.921875 3.25 -12.296875 C 3.820312 -12.679688 4.546875 -12.992188 5.421875 -13.234375 C 6.296875 -13.484375 7.347656 -13.609375 8.578125 -13.609375 C 10.054688 -13.609375 11.257812 -13.46875 12.1875 -13.1875 C 13.125 -12.914062 13.847656 -12.5625 14.359375 -12.125 C 14.878906 -11.695312 15.238281 -11.203125 15.4375 -10.640625 C 15.632812 -10.085938 15.734375 -9.53125 15.734375 -8.96875 L 15.734375 -4.328125 C 15.734375 -3.609375 15.753906 -3.117188 15.796875 -2.859375 C 15.847656 -2.609375 16.023438 -2.484375 16.328125 -2.484375 C 16.578125 -2.484375 16.75 -2.597656 16.84375 -2.828125 C 16.945312 -3.066406 17 -3.46875 17 -4.03125 L 17 -5.515625 L 18.359375 -5.515625 L 18.359375 -4.015625 C 18.359375 -3.296875 18.296875 -2.660156 18.171875 -2.109375 C 18.054688 -1.566406 17.832031 -1.097656 17.5 -0.703125 C 17.164062 -0.316406 16.710938 -0.0234375 16.140625 0.171875 C 15.578125 0.378906 14.847656 0.484375 13.953125 0.484375 C 13.160156 0.484375 12.5 0.394531 11.96875 0.21875 C 11.445312 0.0507812 11.03125 -0.15625 10.71875 -0.40625 C 10.40625 -0.65625 10.179688 -0.914062 10.046875 -1.1875 C 9.921875 -1.46875 9.859375 -1.710938 9.859375 -1.921875 L 9.671875 -1.921875 C 9.628906 -1.597656 9.492188 -1.289062 9.265625 -1 C 9.035156 -0.707031 8.722656 -0.445312 8.328125 -0.21875 C 7.929688 0.0078125 7.453125 0.191406 6.890625 0.328125 C 6.328125 0.460938 5.691406 0.53125 4.984375 0.53125 C 4.304688 0.53125 3.6875 0.460938 3.125 0.328125 C 2.570312 0.203125 2.097656 0 1.703125 -0.28125 C 1.304688 -0.5625 1 -0.925781 0.78125 -1.375 C 0.570312 -1.820312 0.46875 -2.351562 0.46875 -2.96875 C 0.46875 -3.726562 0.679688 -4.328125 1.109375 -4.765625 C 1.535156 -5.203125 2.070312 -5.550781 2.71875 -5.8125 C 3.363281 -6.070312 4.066406 -6.28125 4.828125 -6.4375 C 5.597656 -6.601562 6.304688 -6.800781 6.953125 -7.03125 C 7.609375 -7.257812 8.148438 -7.554688 8.578125 -7.921875 C 9.003906 -8.285156 9.21875 -8.800781 9.21875 -9.46875 C 9.21875 -10.0625 9.03125 -10.535156 8.65625 -10.890625 C 8.28125 -11.253906 7.671875 -11.4375 6.828125 -11.4375 Z M 9.21875 -6.296875 C 9.039062 -6.035156 8.820312 -5.828125 8.5625 -5.671875 C 8.300781 -5.523438 8.046875 -5.378906 7.796875 -5.234375 C 7.554688 -5.085938 7.347656 -4.910156 7.171875 -4.703125 C 6.992188 -4.503906 6.90625 -4.234375 6.90625 -3.890625 C 6.90625 -3.628906 6.976562 -3.394531 7.125 -3.1875 C 7.269531 -2.976562 7.546875 -2.875 7.953125 -2.875 C 8.328125 -2.875 8.628906 -3.015625 8.859375 -3.296875 C 9.097656 -3.585938 9.21875 -3.992188 9.21875 -4.515625 Z M 9.21875 -6.296875 "/>
            </g>
        </g>
    </g>
    <g fill="#000000" fill-opacity="1">
        <g transform="translate(196.08957, 141.014439)">
            <g>
                <path d="M 8.796875 -17.484375 L 8.796875 -13.078125 L 12.34375 -13.078125 L 12.34375 -8.671875 L 8.796875 -8.671875 L 8.796875 -5.03125 C 8.796875 -4.507812 8.867188 -4.082031 9.015625 -3.75 C 9.160156 -3.414062 9.460938 -3.25 9.921875 -3.25 C 10.171875 -3.25 10.375 -3.296875 10.53125 -3.390625 C 10.6875 -3.492188 10.8125 -3.625 10.90625 -3.78125 C 11 -3.945312 11.054688 -4.132812 11.078125 -4.34375 C 11.097656 -4.5625 11.109375 -4.789062 11.109375 -5.03125 L 11.109375 -6.796875 L 12.484375 -6.796875 L 12.484375 -4.890625 C 12.484375 -4.117188 12.398438 -3.398438 12.234375 -2.734375 C 12.066406 -2.078125 11.785156 -1.503906 11.390625 -1.015625 C 11.003906 -0.535156 10.472656 -0.15625 9.796875 0.125 C 9.128906 0.414062 8.285156 0.5625 7.265625 0.5625 C 6.128906 0.5625 5.222656 0.421875 4.546875 0.140625 C 3.878906 -0.128906 3.367188 -0.503906 3.015625 -0.984375 C 2.671875 -1.472656 2.445312 -2.050781 2.34375 -2.71875 C 2.238281 -3.382812 2.1875 -4.109375 2.1875 -4.890625 L 2.1875 -8.671875 L 0.328125 -8.671875 L 0.328125 -12.59375 C 0.910156 -12.59375 1.457031 -12.71875 1.96875 -12.96875 C 2.488281 -13.226562 2.929688 -13.585938 3.296875 -14.046875 C 3.660156 -14.503906 3.941406 -15.023438 4.140625 -15.609375 C 4.347656 -16.191406 4.453125 -16.816406 4.453125 -17.484375 Z M 8.796875 -17.484375 "/>
            </g>
        </g>
    </g>
    <g fill="#000000" fill-opacity="1">
        <g transform="translate(208.79933, 141.014439)">
            <g>
                <path d="M 9.265625 -13.078125 L 9.265625 -5.6875 C 9.265625 -5.15625 9.394531 -4.804688 9.65625 -4.640625 C 9.914062 -4.484375 10.25 -4.40625 10.65625 -4.40625 L 10.96875 -4.40625 L 10.96875 0 L 0.96875 0 L 0.96875 -4.40625 L 1.4375 -4.40625 C 1.851562 -4.40625 2.160156 -4.535156 2.359375 -4.796875 C 2.566406 -5.066406 2.671875 -5.351562 2.671875 -5.65625 L 2.671875 -7.34375 C 2.671875 -7.800781 2.523438 -8.132812 2.234375 -8.34375 C 1.941406 -8.5625 1.609375 -8.671875 1.234375 -8.671875 L 0.96875 -8.671875 L 0.96875 -13.078125 Z M 2.484375 -16 C 2.484375 -16.6875 2.738281 -17.269531 3.25 -17.75 C 3.769531 -18.226562 4.507812 -18.46875 5.46875 -18.46875 C 6.445312 -18.46875 7.195312 -18.226562 7.71875 -17.75 C 8.25 -17.269531 8.515625 -16.6875 8.515625 -16 C 8.515625 -15.300781 8.25 -14.710938 7.71875 -14.234375 C 7.195312 -13.753906 6.445312 -13.515625 5.46875 -13.515625 C 4.507812 -13.515625 3.769531 -13.753906 3.25 -14.234375 C 2.738281 -14.710938 2.484375 -15.300781 2.484375 -16 Z M 2.484375 -16 "/>
            </g>
        </g>
    </g>
</svg>